<svg width="80" height="80" viewBox="0 0 80 80" fill="none" xmlns="http://www.w3.org/2000/svg">
<path d="M28.7816 21.3885C28.3106 19.6618 27.6595 17.3342 26.9368 14.9191C26.212 12.4969 25.4205 10.0048 24.67 7.94826C24.2945 6.91914 23.9357 6.0172 23.6071 5.29595C23.265 4.54544 23.0004 4.09242 22.8334 3.8851C21.3729 2.07676 19.4916 1.33913 16.8931 1.52859C15.5847 1.62521 12.1304 2.23708 8.83563 4.40646C5.59957 6.53721 2.46969 10.1936 1.66962 16.5477L28.7816 21.3885ZM28.7816 21.3885H27.984C27.8841 21.0225 27.7622 20.5781 27.6225 20.0735C27.2169 18.6082 26.661 16.6329 26.0601 14.5976C25.4601 12.5656 24.8109 10.4592 24.2191 8.7369C23.9236 7.8771 23.6366 7.0958 23.3722 6.46002C23.1285 5.87382 22.8455 5.26282 22.5343 4.85707C20.5918 2.31786 17.3978 2.08738 14.7157 2.72039L28.7816 21.3885ZM29.1366 22.7013L27.9015 23.9453L20.1664 31.7363C25.143 44.696 36.0756 55.2768 47.6933 59.3878L54.7351 52.4479L55.288 51.903L56.0521 52.0397L55.788 53.5163C56.0521 52.0397 56.0522 52.0397 56.0524 52.0398L56.0531 52.0399L56.0556 52.0403L56.0652 52.042L56.1024 52.0487L56.2463 52.0747C56.3722 52.0975 56.5567 52.131 56.7919 52.1742C57.2624 52.2605 57.936 52.3854 58.7504 52.5397C60.3783 52.8483 62.5719 53.2755 64.8296 53.7491C67.0835 54.2219 69.4186 54.7445 71.3233 55.2443C72.2739 55.4938 73.138 55.7429 73.8399 55.9827C74.4798 56.2013 75.1712 56.4713 75.6289 56.8104L29.1366 22.7013ZM29.1366 22.7013C29.2093 22.9725 29.2733 23.213 29.3278 23.4186L21.4266 31.4581L20.7074 32.1898L21.1286 33.1254C25.6598 43.1882 35.3058 54.5275 46.7219 58.379L47.6026 58.6761L48.2606 58.0198L55.0571 51.242C55.5379 51.3283 56.2251 51.453 57.0604 51.6081C58.7488 51.9217 61.0389 52.3594 63.449 52.8561C65.8616 53.3533 68.3819 53.9071 70.5347 54.4527C72.7348 55.0103 74.4117 55.5261 75.231 55.9259L75.2357 55.9281C77.7818 57.1594 78.884 59.9576 78.3849 64.1944L29.1366 22.7013ZM22.3435 57.7774L22.3438 57.7777C28.2509 64.0031 35.3334 69.2289 42.3283 72.8778C49.3478 76.5397 56.1559 78.5501 61.5262 78.4962C66.7354 78.4423 70.8076 75.9921 73.6823 72.9283C76.5971 69.8218 78.1431 66.2306 78.3849 64.1947L22.3435 57.7774ZM22.3435 57.7774C16.375 51.4907 10.7689 44.4002 6.87436 37.2343M22.3435 57.7774L6.87436 37.2343M6.87436 37.2343C2.96851 30.0475 0.866679 22.9375 1.66958 16.548L6.87436 37.2343ZM28.2805 22.481L28.2803 22.48C28.2811 22.483 28.2814 22.484 28.2805 22.481Z" stroke="#7CFC00" stroke-width="3"/>
</svg>
