<svg width="81" height="69" viewBox="0 0 81 69" fill="none" xmlns="http://www.w3.org/2000/svg">
<path d="M75.5993 2C77.9743 2 79.7659 4.08333 78.8076 7.95833L67.1826 62.75C66.3701 66.6458 64.0159 67.5833 60.7659 65.7708L33.0368 45.2917C32.9292 45.2145 32.8416 45.1129 32.7812 44.9951C32.7208 44.8774 32.6892 44.7469 32.6892 44.6146C32.6892 44.4822 32.7208 44.3518 32.7812 44.234C32.8416 44.1163 32.9292 44.0147 33.0368 43.9375L65.0576 15.0208C66.5159 13.7292 64.7451 13.1042 62.8284 14.2708L22.6409 39.625C22.5191 39.7045 22.3807 39.7552 22.2363 39.7732C22.0919 39.7913 21.9453 39.7762 21.8076 39.7292L4.7451 34.3333C0.953433 33.2292 0.953433 30.625 5.59927 28.7708L73.8701 2.4375C74.4115 2.17775 74.9995 2.029 75.5993 2Z" stroke="#7CFC00" stroke-width="3" stroke-linecap="round" stroke-linejoin="round"/>
</svg>
