<svg width="94" height="91" viewBox="0 0 94 91" fill="none" xmlns="http://www.w3.org/2000/svg">
<path fill-rule="evenodd" clip-rule="evenodd" d="M46.8148 2.00001C36.1751 1.99454 25.881 5.77662 17.7756 12.669C9.67021 19.5614 4.28299 29.114 2.57857 39.6163C0.874146 50.1185 2.96384 60.8845 8.47346 69.9865C13.9831 79.0885 22.5528 85.932 32.6481 89.2917C34.8981 89.7083 35.7106 88.3333 35.7106 87.2083C35.7106 86.0833 35.7106 83.3333 35.7106 79.6042C23.2106 82.3125 20.6273 73.6042 20.6273 73.6042C19.8005 70.8488 18.0016 68.4873 15.5648 66.9583C11.5023 64.1875 15.8773 64.2292 15.8773 64.2292C17.2963 64.4278 18.6514 64.9476 19.8392 65.7491C21.0269 66.5506 22.0161 67.6126 22.7314 68.8542C26.7314 75.7083 33.1481 73.7292 35.7731 72.5833C35.9804 70.3075 36.9923 68.1801 38.6273 66.5833C28.6689 65.4583 18.2106 61.625 18.2106 44.4583C18.1446 40.0049 19.8016 35.6982 22.8356 32.4375C21.4572 28.576 21.6138 24.3327 23.2731 20.5833C23.2731 20.5833 27.0231 19.375 35.5856 25.1667C42.924 23.1666 50.6639 23.1666 58.0023 25.1667C66.5648 19.375 70.3148 20.5833 70.3148 20.5833C71.9615 24.3356 72.1179 28.5741 70.7523 32.4375C73.7806 35.7003 75.4303 40.0074 75.3564 44.4583C75.3564 61.6667 64.9398 65.4375 54.9189 66.5625C55.9942 67.652 56.8223 68.9601 57.3472 70.398C57.872 71.8359 58.0812 73.3699 57.9606 74.8958C57.9606 80.875 57.9606 85.7083 57.9606 87.1875C57.9606 88.6667 58.7731 89.7708 61.0439 89.2708C71.1289 85.8982 79.685 79.0475 85.1817 69.9443C90.6784 60.841 92.757 50.0791 91.0458 39.5837C89.3345 29.0883 83.9451 19.5441 75.8414 12.6583C67.7378 5.77259 57.4488 1.99453 46.8148 2.00001Z" stroke="#32CD32" stroke-width="3" stroke-linecap="round" stroke-linejoin="round"/>
</svg>
