<svg width="80" height="80" viewBox="0 0 80 80" fill="none" xmlns="http://www.w3.org/2000/svg">
<path d="M30.9951 23.8621L22.4964 32.5095C26.9215 42.3368 36.3093 53.283 47.2014 56.9577L54.5507 49.6286C54.5507 49.6286 71.9741 52.6678 75.8888 54.5777C79.2862 56.2207 80.4052 59.8684 79.8744 64.3713C79.2998 69.2121 72.9646 79.8778 61.5417 79.9961C50.1222 80.111 33.304 71.5076 21.2557 58.8102C9.2074 46.1197 -1.53594 30.0248 0.18133 16.3607C1.90208 2.69298 13.805 0.252326 16.7833 0.0326166C19.7954 -0.187172 22.1855 0.695152 24.0008 2.94327C26.3367 5.84038 30.9951 23.8621 30.9951 23.8621ZM21.3436 5.76938C19.9271 3.91687 17.4931 3.60581 15.0591 4.18055C12.8956 4.68763 5.01557 7.95658 3.89999 16.7122C2.66271 26.4482 9.92413 42.925 22.9527 55.5311C35.9848 68.1371 48.5401 75.4932 59.3309 76.3756C70.1216 77.2579 75.3851 67.7552 76.1559 64.8986C76.9232 62.0454 76.2877 59.1652 74.736 58.0158C72.7618 56.552 55.788 53.5163 55.788 53.5163L48.0872 61.1056C35.4236 56.9847 23.5004 45.4537 18.4262 31.3602L26.837 22.8885C26.8336 22.8885 22.7635 7.61857 21.3436 5.76938Z" fill="#32CD32"/>
</svg>
