<svg width="82" height="90" viewBox="0 0 82 90" fill="none" xmlns="http://www.w3.org/2000/svg">
<mask id="path-1-inside-1_109_896" fill="white">
<path d="M60.4856 34.6279C60.9045 34.6279 61.3127 34.7599 61.6513 35.0049C61.9898 35.2499 62.2413 35.5952 62.3695 35.9911L64.5463 42.7051C65.4606 43.149 66.3353 43.6479 67.1704 44.2097L74.1204 42.7247C74.5302 42.6379 74.9571 42.6824 75.3398 42.8518C75.7224 43.0213 76.041 43.3069 76.2497 43.6676L81.7353 53.0922C81.9447 53.4527 82.0335 53.8699 81.9887 54.2836C81.9438 54.6974 81.7678 55.0863 81.4859 55.3944L76.7167 60.6194C76.7862 61.6213 76.7862 62.6267 76.7167 63.6286L81.4859 68.8615C81.7678 69.1695 81.9438 69.5585 81.9887 69.9722C82.0335 70.386 81.9447 70.8032 81.7353 71.1636L76.2497 80.5922C76.0405 80.9522 75.7216 81.237 75.339 81.4057C74.9564 81.5744 74.5297 81.6183 74.1204 81.5311L67.1704 80.0461C66.3392 80.604 65.4606 81.1069 64.5503 81.5508L62.3695 88.2647C62.2413 88.6606 61.9898 89.006 61.6513 89.2509C61.3127 89.4959 60.9045 89.6279 60.4856 89.6279H49.5144C49.0954 89.6279 48.6873 89.4959 48.3487 89.2509C48.0102 89.006 47.7587 88.6606 47.6305 88.2647L45.4576 81.5547C44.5458 81.1121 43.6663 80.6067 42.8257 80.0422L35.8796 81.5311C35.4699 81.618 35.0429 81.5735 34.6602 81.404C34.2776 81.2346 33.959 80.949 33.7503 80.5883L28.2647 71.1636C28.0553 70.8032 27.9665 70.386 28.0113 69.9722C28.0562 69.5585 28.2322 69.1695 28.5141 68.8615L33.2833 63.6286C33.2142 62.6293 33.2142 61.6265 33.2833 60.6272L28.5141 55.3944C28.2322 55.0863 28.0562 54.6974 28.0113 54.2836C27.9665 53.8699 28.0553 53.4527 28.2647 53.0922L33.7503 43.6636C33.9595 43.3037 34.2784 43.0189 34.661 42.8502C35.0436 42.6814 35.4703 42.6375 35.8796 42.7247L42.8257 44.2136C43.6647 43.6519 44.5434 43.1451 45.4576 42.7011L47.6344 35.9911C47.7622 35.5965 48.0125 35.2521 48.3495 35.0072C48.6865 34.7624 49.0928 34.6296 49.5105 34.6279H60.4816H60.4856ZM59.037 38.5565H50.963L48.7149 45.4983L47.1991 46.2329C46.4539 46.5949 45.7345 47.0071 45.046 47.4665L43.6449 48.4094L36.4575 46.8694L32.4205 53.8151L37.348 59.2286L37.2293 60.8944C37.1724 61.7158 37.1724 62.5401 37.2293 63.3615L37.348 65.0272L32.4125 70.4408L36.4535 77.3865L43.641 75.8504L45.042 76.7894C45.7306 77.2488 46.4499 77.661 47.1951 78.0229L48.711 78.7576L50.963 85.6994H59.0449L61.3009 78.7536L62.8128 78.0229C63.5572 77.6618 64.2753 77.2496 64.9619 76.7894L66.359 75.8504L73.5504 77.3865L77.5875 70.4408L72.656 65.0272L72.7747 63.3615C72.8318 62.5388 72.8318 61.7131 72.7747 60.8904L72.656 59.2247L77.5914 53.8151L73.5504 46.8694L66.359 48.4015L64.9619 47.4665C64.2754 47.0061 63.5572 46.5939 62.8128 46.2329L61.3009 45.5022L59.041 38.5565H59.037ZM55 50.3422C58.1491 50.3422 61.1691 51.5839 63.3959 53.7942C65.6226 56.0044 66.8736 59.0022 66.8736 62.1279C66.8736 65.2537 65.6226 68.2514 63.3959 70.4617C61.1691 72.6719 58.1491 73.9136 55 73.9136C51.8509 73.9136 48.8309 72.6719 46.6041 70.4617C44.3774 68.2514 43.1264 65.2537 43.1264 62.1279C43.1264 59.0022 44.3774 56.0044 46.6041 53.7942C48.8309 51.5839 51.8509 50.3422 55 50.3422ZM55 54.2708C52.9006 54.2708 50.8872 55.0986 49.4028 56.5721C47.9183 58.0456 47.0843 60.0441 47.0843 62.1279C47.0843 64.2118 47.9183 66.2103 49.4028 67.6838C50.8872 69.1573 52.9006 69.9851 55 69.9851C57.0994 69.9851 59.1128 69.1573 60.5972 67.6838C62.0817 66.2103 62.9157 64.2118 62.9157 62.1279C62.9157 60.0441 62.0817 58.0456 60.5972 56.5721C59.1128 55.0986 57.0994 54.2708 55 54.2708Z"/>
</mask>
<path d="M60.4856 34.6279C60.9045 34.6279 61.3127 34.7599 61.6513 35.0049C61.9898 35.2499 62.2413 35.5952 62.3695 35.9911L64.5463 42.7051C65.4606 43.149 66.3353 43.6479 67.1704 44.2097L74.1204 42.7247C74.5302 42.6379 74.9571 42.6824 75.3398 42.8518C75.7224 43.0213 76.041 43.3069 76.2497 43.6676L81.7353 53.0922C81.9447 53.4527 82.0335 53.8699 81.9887 54.2836C81.9438 54.6974 81.7678 55.0863 81.4859 55.3944L76.7167 60.6194C76.7862 61.6213 76.7862 62.6267 76.7167 63.6286L81.4859 68.8615C81.7678 69.1695 81.9438 69.5585 81.9887 69.9722C82.0335 70.386 81.9447 70.8032 81.7353 71.1636L76.2497 80.5922C76.0405 80.9522 75.7216 81.237 75.339 81.4057C74.9564 81.5744 74.5297 81.6183 74.1204 81.5311L67.1704 80.0461C66.3392 80.604 65.4606 81.1069 64.5503 81.5508L62.3695 88.2647C62.2413 88.6606 61.9898 89.006 61.6513 89.2509C61.3127 89.4959 60.9045 89.6279 60.4856 89.6279H49.5144C49.0954 89.6279 48.6873 89.4959 48.3487 89.2509C48.0102 89.006 47.7587 88.6606 47.6305 88.2647L45.4576 81.5547C44.5458 81.1121 43.6663 80.6067 42.8257 80.0422L35.8796 81.5311C35.4699 81.618 35.0429 81.5735 34.6602 81.404C34.2776 81.2346 33.959 80.949 33.7503 80.5883L28.2647 71.1636C28.0553 70.8032 27.9665 70.386 28.0113 69.9722C28.0562 69.5585 28.2322 69.1695 28.5141 68.8615L33.2833 63.6286C33.2142 62.6293 33.2142 61.6265 33.2833 60.6272L28.5141 55.3944C28.2322 55.0863 28.0562 54.6974 28.0113 54.2836C27.9665 53.8699 28.0553 53.4527 28.2647 53.0922L33.7503 43.6636C33.9595 43.3037 34.2784 43.0189 34.661 42.8502C35.0436 42.6814 35.4703 42.6375 35.8796 42.7247L42.8257 44.2136C43.6647 43.6519 44.5434 43.1451 45.4576 42.7011L47.6344 35.9911C47.7622 35.5965 48.0125 35.2521 48.3495 35.0072C48.6865 34.7624 49.0928 34.6296 49.5105 34.6279H60.4816H60.4856ZM59.037 38.5565H50.963L48.7149 45.4983L47.1991 46.2329C46.4539 46.5949 45.7345 47.0071 45.046 47.4665L43.6449 48.4094L36.4575 46.8694L32.4205 53.8151L37.348 59.2286L37.2293 60.8944C37.1724 61.7158 37.1724 62.5401 37.2293 63.3615L37.348 65.0272L32.4125 70.4408L36.4535 77.3865L43.641 75.8504L45.042 76.7894C45.7306 77.2488 46.4499 77.661 47.1951 78.0229L48.711 78.7576L50.963 85.6994H59.0449L61.3009 78.7536L62.8128 78.0229C63.5572 77.6618 64.2753 77.2496 64.9619 76.7894L66.359 75.8504L73.5504 77.3865L77.5875 70.4408L72.656 65.0272L72.7747 63.3615C72.8318 62.5388 72.8318 61.7131 72.7747 60.8904L72.656 59.2247L77.5914 53.8151L73.5504 46.8694L66.359 48.4015L64.9619 47.4665C64.2754 47.0061 63.5572 46.5939 62.8128 46.2329L61.3009 45.5022L59.041 38.5565H59.037ZM55 50.3422C58.1491 50.3422 61.1691 51.5839 63.3959 53.7942C65.6226 56.0044 66.8736 59.0022 66.8736 62.1279C66.8736 65.2537 65.6226 68.2514 63.3959 70.4617C61.1691 72.6719 58.1491 73.9136 55 73.9136C51.8509 73.9136 48.8309 72.6719 46.6041 70.4617C44.3774 68.2514 43.1264 65.2537 43.1264 62.1279C43.1264 59.0022 44.3774 56.0044 46.6041 53.7942C48.8309 51.5839 51.8509 50.3422 55 50.3422ZM55 54.2708C52.9006 54.2708 50.8872 55.0986 49.4028 56.5721C47.9183 58.0456 47.0843 60.0441 47.0843 62.1279C47.0843 64.2118 47.9183 66.2103 49.4028 67.6838C50.8872 69.1573 52.9006 69.9851 55 69.9851C57.0994 69.9851 59.1128 69.1573 60.5972 67.6838C62.0817 66.2103 62.9157 64.2118 62.9157 62.1279C62.9157 60.0441 62.0817 58.0456 60.5972 56.5721C59.1128 55.0986 57.0994 54.2708 55 54.2708Z" stroke="#32CD32" stroke-width="6" mask="url(#path-1-inside-1_109_896)"/>
<path d="M29.3469 70.9784C29.3469 70.9784 6.72577 71.2501 2.00002 63.4147C2.00001 59.9282 2 53.4793 2 46.2541M2.00002 10.5714C2.00002 10.5714 2.00001 18.7679 2.00001 28.8656M2.00002 10.5714C2.00002 10.5714 4.85714 1.99965 28.9388 2C53.0204 2.00035 55.8776 10.5714 55.8776 10.5714C55.8776 10.5714 55.8776 19.1433 28.9388 19.1433C2.00002 19.1433 2.00002 10.5714 2.00002 10.5714ZM2.00001 28.8656C2.00001 28.8656 6.99633 35.9297 28.9388 35.9297C50.8812 35.9297 55.8776 28.8656 55.8776 28.8656M2.00001 28.8656C2 34.4355 2 40.5839 2 46.2541M2 46.2541C2 46.2541 4.92203 49.2428 9.61174 50.873C16.4691 53.8152 30.8216 53.3182 30.8216 53.3182" stroke="#32CD32" stroke-width="3"/>
<path d="M55.8776 35.878L55.8776 10.1637" stroke="#32CD32" stroke-width="3"/>
<path d="M13.2449 24.4494C13.2449 26.2531 11.9514 27.5311 10.5714 27.5311C9.19141 27.5311 7.89796 26.2531 7.89796 24.4494C7.89796 22.6458 9.19141 21.3678 10.5714 21.3678C11.9514 21.3678 13.2449 22.6458 13.2449 24.4494Z" stroke="#32CD32" stroke-width="2"/>
<path d="M13.2449 42.4085C13.2449 44.2122 11.9514 45.4902 10.5714 45.4902C9.19141 45.4902 7.89796 44.2122 7.89796 42.4085C7.89796 40.6049 9.19141 39.3269 10.5714 39.3269C11.9514 39.3269 13.2449 40.6049 13.2449 42.4085Z" stroke="#32CD32" stroke-width="2"/>
<path d="M13.2449 59.5514C13.2449 61.355 11.9514 62.633 10.5714 62.633C9.19141 62.633 7.89796 61.355 7.89796 59.5514C7.89796 57.7477 9.19141 56.4697 10.5714 56.4697C11.9514 56.4697 13.2449 57.7477 13.2449 59.5514Z" stroke="#32CD32" stroke-width="2"/>
</svg>
