<svg width="100" height="100" viewBox="0 0 100 100" fill="none" xmlns="http://www.w3.org/2000/svg">
<path d="M53.7944 15.6672L53.0455 16.1005V16.9656V18.1818V19.6818H54.5455H86.3636C93.0666 19.6818 98.5 25.1155 98.5 31.8182V86.3636C98.5 93.0666 93.0666 98.5 86.3636 98.5H86.3188H86.2727H86.2253H86.1766H86.1266H86.0753H86.0227H85.9688H85.9137H85.8573H85.7996H85.7406H85.6804H85.619H85.5563H85.4924H85.4272H85.3608H85.2932H85.2244H85.1544H85.0831H85.0107H84.9371H84.8623H84.7863H84.7091H84.6307H84.5512H84.4706H84.3887H84.3057H84.2216H84.1364H84.05H83.9624H83.8738H83.784H83.6932H83.6012H83.5081H83.4139H83.3187H83.2223H83.1249H83.0264H82.9268H82.8262H82.7245H82.6218H82.518H82.4132H82.3074H82.2005H82.0926H81.9837H81.8737H81.7628H81.6508H81.5379H81.424H81.3091H81.1932H81.0763H80.9585H80.8397H80.7199H80.5992H80.4776H80.355H80.2314H80.107H79.9816H79.8553H79.7281H79.6H79.4709H79.341H79.2102H79.0785H78.9459H78.8125H78.6781H78.543H78.4069H78.27H78.1323H77.9937H77.8542H77.714H77.5729H77.431H77.2883H77.1448H77.0004H76.8553H76.7094H76.5627H76.4152H76.2669H76.1179H75.9681H75.8175H75.6662H75.5142H75.3613H75.2078H75.0535H74.8985H74.7428H74.5864H74.4292H74.2714H74.1128H73.9536H73.7936H73.633H73.4717H73.3097H73.1471H72.9838H72.8199H72.6553H72.49H72.3241H72.1576H71.9905H71.8227H71.6543H71.4853H71.3157H71.1455H70.9747H70.8033H70.6314H70.4588H70.2857H70.112H69.9378H69.763H69.5876H69.4117H69.2353H69.0583H68.8808H68.7028H68.5242H68.3452H68.1656H67.9855H67.805H67.6239H67.4424H67.2603H67.0779H66.8949H66.7115H66.5276H66.3433H66.1585H65.9733H65.7876H65.6015H65.415H65.2281H65.0407H64.853H64.6648H64.4763H64.2873H64.098H63.9083H63.7182H63.5277H63.3369H63.1457H62.9542H62.7623H62.5701H62.3776H62.1847H61.9914H61.7979H61.6041H61.4099H61.2154H61.0207H60.8256H60.6303H60.4347H60.2388H60.0426H59.8462H59.6495H59.4525H59.2553H59.0579H58.8602H58.6623H58.4641H58.2658H58.0672H57.8684H57.6694H57.4702H57.2708H57.0713H56.8715H56.6716H56.4715H56.2712H56.0708H55.8702H55.6694H55.4686H55.2675H55.0664H54.8651H54.6637H54.4622H54.2605H54.0588H53.857H53.655H53.453H53.2509H53.0487H52.8464H52.6441H52.4417H52.2393H52.0368H51.8342H51.6316H51.429H51.2264H51.0237H50.821H50.6183H50.4156H50.2129H50.0102H49.8075H49.6048H49.4021H49.1995H48.9969H48.7943H48.5918H48.3893H48.1869H47.9845H47.7822H47.58H47.3778H47.1757H46.9737H46.7718H46.57H46.3683H46.1667H45.9653H45.7639H45.5627H45.3616H45.1606H44.9598H44.7591H44.5586H44.3582H44.158H43.9579H43.7581H43.5584H43.3589H43.1596H42.9605H42.7616H42.5628H42.3644H42.1661H41.968H41.7702H41.5726H41.3753H41.1782H40.9813H40.7847H40.5884H40.3923H40.1965H40.001H39.8058H39.6108H39.4162H39.2218H39.0278H38.8341H38.6407H38.4476H38.2548H38.0624H37.8703H37.6785H37.4871H37.2961H37.1054H36.9151H36.7252H36.5356H36.3464H36.1576H35.9692H35.7812H35.5936H35.4064H35.2197H35.0333H34.8474H34.6619H34.4769H34.2923H34.1081H33.9244H33.7411H33.5584H33.3761H33.1942H33.0129H32.832H32.6516H32.4718H32.2924H32.1135H31.9352H31.7573H31.58H31.4033H31.227H31.0513H30.8762H30.7016H30.5276H30.3541H30.1812H30.0089H29.8371H29.666H29.4954H29.3254H29.1561H28.9873H28.8192H28.6517H28.4847H28.3185H28.1528H27.9878H27.8235H27.6598H27.4968H27.3344H27.1727H27.0116H26.8513H26.6916H26.5326H26.3743H26.2168H26.0599H25.9037H25.7483H25.5935H25.4396H25.2863H25.1338H24.982H24.831H24.6807H24.5312H24.3825H24.2345H24.0873H23.9409H23.7953H23.6505H23.5064H23.3632H23.2208H23.0792H22.9385H22.7985H22.6594H22.5212H22.3837H22.2472H22.1115H21.9766H21.8426H21.7095H21.5773H21.4459H21.3154H21.1858H21.0572H20.9294H20.8025H20.6766H20.5516H20.4275H20.3043H20.1821H20.0608H19.9404H19.821H19.7026H19.5852H19.4687H19.3532H19.2386H19.1251H19.0125H18.901H18.7904H18.6809H18.5723H18.4648H18.3584H18.2529H18.1485H18.0451H17.9428H17.8415H17.7413H17.6421H17.5441H17.447H17.3511H17.2563H17.1625H17.0699H16.9783H16.8879H16.7985H16.7103H16.6232H16.5373H16.4525H16.3688H16.2862H16.2049H16.1246H16.0456H15.9677H15.8909H15.8154H15.741H15.6679H15.5959H15.5251H15.4556H15.3872H15.3201H15.2542H15.1895H15.126H15.0638H15.0029H14.9431H14.8847H14.8275H14.7716H14.7169H14.6635H14.6114H14.5606H14.5111H14.4629H14.416H14.3704H14.3261H14.2831H14.2415H14.2012H14.1623H14.1246H14.0884H14.0535H14.0199H13.9877H13.9569H13.9275H13.8994H13.8728H13.8475H13.8236H13.8011H13.7801H13.7604H13.7422H13.7254H13.7101H13.6961H13.6836H13.6726H13.663H13.6549H13.6482H13.6431H13.6393H13.6371C13.6366 98.5 13.6364 98.5 13.6364 100V98.5C6.93364 98.5 1.5 93.0666 1.5 86.3636V31.8182C1.5 25.1155 6.93365 19.6818 13.6364 19.6818H45.4545H46.9545V18.1818V16.9656V16.1005L46.2056 15.6672C43.9328 14.3525 42.4091 11.8987 42.4091 9.09091C42.4091 4.89855 45.8075 1.5 50 1.5C54.1925 1.5 57.5909 4.89855 57.5909 9.09091C57.5909 11.8987 56.0672 14.3525 53.7944 15.6672ZM61.8147 78.6346L63.1564 79.3055L61.8147 78.6347C59.5671 83.1303 54.3599 84.8636 50 84.8636C45.6401 84.8636 40.433 83.1303 38.1852 78.6347C37.433 77.1302 38.0427 75.3012 39.5471 74.5489C41.0517 73.7967 42.8807 74.4063 43.6329 75.9108C44.0379 76.7208 44.8655 77.4267 45.8848 77.9194C46.9439 78.4314 48.3225 78.7727 50 78.7727C51.6775 78.7727 53.0561 78.4314 54.1152 77.9194C55.1345 77.4267 55.9621 76.7208 56.3671 75.9108C57.1193 74.4063 58.9483 73.7967 60.4528 74.5489C61.9573 75.3012 62.567 77.1301 61.8147 78.6346ZM45.4545 25.7727H13.6364C10.2976 25.7727 7.59091 28.4794 7.59091 31.8182V86.3636C7.59091 89.7025 10.2976 92.4091 13.6364 92.4091H86.3636C89.7025 92.4091 92.4091 89.7025 92.4091 86.3636V31.8182C92.4091 28.4794 89.7025 25.7727 86.3636 25.7727H54.5455H45.4545ZM70.4545 43.9545C65.8607 43.9545 62.1364 47.6788 62.1364 52.2727C62.1364 56.8666 65.8607 60.5909 70.4545 60.5909C75.0484 60.5909 78.7727 56.8666 78.7727 52.2727C78.7727 47.6788 75.0484 43.9545 70.4545 43.9545ZM56.0455 52.2727C56.0455 44.3148 62.4966 37.8636 70.4545 37.8636C78.4125 37.8636 84.8636 44.3148 84.8636 52.2727C84.8636 60.2307 78.4125 66.6818 70.4545 66.6818C62.4966 66.6818 56.0455 60.2307 56.0455 52.2727ZM29.5455 43.9545C24.9514 43.9545 21.2273 47.6789 21.2273 52.2727C21.2273 56.8666 24.9514 60.5909 29.5455 60.5909C34.1395 60.5909 37.8636 56.8666 37.8636 52.2727C37.8636 47.6789 34.1395 43.9545 29.5455 43.9545ZM15.1364 52.2727C15.1364 44.3148 21.5875 37.8636 29.5455 37.8636C37.5034 37.8636 43.9545 44.3148 43.9545 52.2727C43.9545 60.2307 37.5034 66.6818 29.5455 66.6818C21.5875 66.6818 15.1364 60.2307 15.1364 52.2727Z" stroke="#32CD32" stroke-width="3"/>
</svg>
