<svg width="100" height="100" viewBox="0 0 100 100" fill="none" xmlns="http://www.w3.org/2000/svg">
<path d="M53.6971 10.9004L53.7037 10.9039L79.8242 24.9848C79.8248 24.9851 79.8255 24.9855 79.8261 24.9858C81.2359 25.7529 82.1238 27.2327 82.1238 29.0002C82.1238 30.7677 81.2359 32.2474 79.8261 33.0145C79.8255 33.0148 79.8248 33.0152 79.8242 33.0156L53.7036 47.0963L53.6972 47.0999C52.548 47.7267 51.2541 48.0417 49.9988 48.0417C48.7434 48.0417 47.4495 47.7267 46.3004 47.0998L46.2939 47.0963L20.1733 33.0156C20.1727 33.0152 20.1721 33.0149 20.1714 33.0145C18.7666 32.2501 17.8737 30.7319 17.8737 29.0002C17.8737 27.2328 18.7614 25.7532 20.1709 24.9861C20.1717 24.9856 20.1725 24.9852 20.1733 24.9848L46.2939 10.9039L46.2939 10.9039L46.3004 10.9003C48.6027 9.64455 51.3949 9.64455 53.6971 10.9004Z" stroke="#7CFC00" stroke-width="3"/>
<path d="M40.6208 54.6333L40.6272 54.6364C43.6503 56.1302 45.5358 59.1836 45.5001 62.6093L45.5 62.6171V62.625V85.5833C45.5 87.1598 44.7175 88.5807 43.3905 89.383L43.3868 89.3853C42.6686 89.8224 41.8561 90.0416 41.0417 90.0416C40.351 90.0416 39.6648 89.8845 39.0458 89.575L14.7605 77.4115C14.7595 77.411 14.7586 77.4106 14.7577 77.4101C11.7203 75.8723 9.83334 72.8061 9.83334 69.4166V46.4583C9.83334 44.8996 10.6022 43.5024 11.9602 42.6479C13.2543 41.8487 14.8685 41.7752 16.2939 42.4698L40.6208 54.6333Z" stroke="#7CFC00" stroke-width="3"/>
<path d="M83.7163 42.4658L83.728 42.46L83.7395 42.4539C85.0726 41.7571 86.6768 41.8265 88.0493 42.6517C89.4032 43.5066 90.1696 44.9018 90.1696 46.4579V69.4163C90.1696 72.844 88.2856 75.8704 85.2453 77.4097C85.2443 77.4102 85.2434 77.4107 85.2425 77.4111L60.9571 89.5746C60.3381 89.8841 59.6519 90.0413 58.9613 90.0413C58.1469 90.0413 57.3343 89.8221 56.6162 89.385L56.6124 89.3827C55.2855 88.5803 54.5029 87.1595 54.5029 85.5829V62.6246C54.5029 59.1968 56.387 56.1703 59.4275 54.631C59.4283 54.6306 59.4292 54.6302 59.43 54.6298L83.7163 42.4658Z" stroke="#7CFC00" stroke-width="3"/>
</svg>
