<svg width="90" height="90" viewBox="0 0 90 90" fill="none" xmlns="http://www.w3.org/2000/svg">
<mask id="path-1-inside-1_101_155" fill="white">
<path d="M32.464 90C27.8577 90 23.527 87.5996 21.017 83.6981C12.7318 83.3565 6.26719 76.6692 6.26719 68.5028C6.26719 65.6856 7.05686 62.953 8.56412 60.5306C3.25267 57.1807 0 51.3332 0 45C0 38.6668 3.25267 32.8224 8.56412 29.4662C7.05999 27.047 6.26719 24.3175 6.26719 21.4972C6.26719 13.2556 12.8509 6.52124 21.0327 6.27368C23.549 2.38788 27.8702 0 32.464 0C39.9972 0 46.1265 6.12953 46.1265 13.663V28.2033H73.2008C76.0336 28.2033 78.3399 25.8969 78.3399 23.0641V17.7744C76.5381 17.2792 75.2063 15.6247 75.2063 13.663C75.2063 11.3127 77.1178 9.40111 79.468 9.40111C81.8182 9.40111 83.7297 11.3127 83.7297 13.663C83.7297 15.6215 82.3979 17.2761 80.5961 17.7744V23.0641C80.5961 27.141 77.2776 30.4596 73.2008 30.4596H46.1265V37.6045H81.627C82.1221 35.7994 83.7798 34.4708 85.7383 34.4708C88.0885 34.4708 90 36.3823 90 38.7326C90 41.0829 88.0885 42.9944 85.7383 42.9944C83.7798 42.9944 82.1253 41.6657 81.627 39.8607H46.1265V50.1393H81.627C82.1221 48.3374 83.7798 47.0056 85.7383 47.0056C88.0885 47.0056 90 48.9171 90 51.2674C90 53.6177 88.0885 55.5293 85.7383 55.5293C83.7798 55.5293 82.1253 54.1974 81.627 52.3955H46.1265V59.5373H73.2008C77.2807 59.5373 80.5961 62.8559 80.5961 66.9328V72.2225C82.3979 72.7176 83.7297 74.3754 83.7297 76.3339C83.7297 78.6842 81.8182 80.5957 79.468 80.5957C77.1178 80.5957 75.2063 78.6842 75.2063 76.3339C75.2063 74.3754 76.5381 72.7208 78.3399 72.2225V66.9359C78.3399 64.1031 76.0367 61.7967 73.2008 61.7967H46.1265V76.337C46.1265 83.8705 39.9972 90 32.464 90ZM22.189 81.4387L22.6371 82.0216C24.7115 85.6034 28.3872 87.7437 32.464 87.7437C38.7532 87.7437 43.8703 82.6264 43.8703 76.337V13.663C43.8703 7.37361 38.7532 2.25627 32.464 2.25627C28.3872 2.25627 24.7115 4.39659 22.634 7.97841L22.2705 8.53934C21.4745 10.1187 21.0578 11.8799 21.0578 13.663C21.0578 15.6685 21.5842 17.6396 22.5838 19.3663L20.6316 20.4944C19.4346 18.4293 18.8016 16.0634 18.8016 13.663C18.8016 11.9488 19.1243 10.2535 19.7417 8.67096C13.3523 9.57033 8.52338 14.9791 8.52338 21.4972C8.52338 24.2423 9.41019 26.8935 11.0835 29.1623L11.8544 30.2058L10.7138 30.8231C5.49633 33.6466 2.25619 39.0773 2.25619 45C2.25619 50.5937 5.14536 55.7486 9.86143 58.6786C12.7631 55.2409 16.9872 53.273 21.4965 53.273V55.5324C17.7173 55.5324 14.1764 57.1525 11.704 59.9948L11.0835 60.8409C9.41019 63.1065 8.52338 65.7577 8.52338 68.5028C8.52338 75.657 14.3425 81.4763 21.4965 81.4763L22.189 81.4387ZM79.468 74.3315C78.3618 74.3315 77.4625 75.2308 77.4625 76.337C77.4625 77.4432 78.3618 78.3426 79.468 78.3426C80.5741 78.3426 81.4735 77.4432 81.4735 76.337C81.4735 75.2308 80.5741 74.3315 79.468 74.3315ZM85.7352 49.2618C84.629 49.2618 83.7297 50.1612 83.7297 51.2674C83.7297 52.3736 84.629 53.273 85.7352 53.273C86.8413 53.273 87.7407 52.3736 87.7407 51.2674C87.7407 50.1612 86.8413 49.2618 85.7352 49.2618ZM85.7352 36.727C84.629 36.727 83.7297 37.6264 83.7297 38.7326C83.7297 39.8388 84.629 40.7382 85.7352 40.7382C86.8413 40.7382 87.7407 39.8388 87.7407 38.7326C87.7407 37.6264 86.8413 36.727 85.7352 36.727ZM79.468 11.6574C78.3618 11.6574 77.4625 12.5568 77.4625 13.663C77.4625 14.7692 78.3618 15.6685 79.468 15.6685C80.5741 15.6685 81.4735 14.7692 81.4735 13.663C81.4735 12.5568 80.5741 11.6574 79.468 11.6574ZM32.464 83.7326V81.4763C35.2968 81.4763 37.6031 79.1731 37.6031 76.337H39.8593C39.8593 80.4171 36.5409 83.7326 32.464 83.7326ZM23.0633 77.4652C18.1216 77.4652 14.1012 73.4446 14.1012 68.5028H16.3574C16.3574 72.2006 19.3656 75.2089 23.0633 75.2089V77.4652ZM32.464 71.1978C28.3872 71.1978 25.0688 67.8792 25.0688 63.8022C25.0688 59.7253 28.3872 56.4067 32.464 56.4067V58.6661C29.6313 58.6661 27.325 60.9694 27.325 63.8054C27.325 66.6414 29.6313 68.9446 32.464 68.9446V71.1978ZM14.7028 47.0902C13.3052 45.6925 12.5344 43.8374 12.5344 41.8663C12.5344 37.5104 15.574 34.4708 19.9297 34.4708C21.9383 34.4708 23.7464 35.2166 25.1596 36.6299L23.5615 38.2249C22.5838 37.2441 21.3273 36.727 19.9297 36.727C16.8086 36.727 14.7906 38.7451 14.7906 41.8663C14.7906 43.2357 15.3264 44.5237 16.2947 45.4951L14.7028 47.0902ZM32.464 35.1602V32.9039C35.2968 32.9039 37.6031 30.5975 37.6031 27.7646C37.6031 24.9318 35.2968 22.6253 32.464 22.6253V20.3691C36.5409 20.3691 39.8593 23.6877 39.8593 27.7646C39.8593 31.8416 36.5409 35.1602 32.464 35.1602ZM39.8593 13.663H37.6031C37.6031 10.8301 35.2968 8.52368 32.464 8.52368C29.6313 8.52368 27.325 10.8301 27.325 13.663H25.0688C25.0688 9.586 28.3872 6.26741 32.464 6.26741C36.5409 6.26741 39.8593 9.586 39.8593 13.663Z"/>
</mask>
<path d="M32.464 90C27.8577 90 23.527 87.5996 21.017 83.6981C12.7318 83.3565 6.26719 76.6692 6.26719 68.5028C6.26719 65.6856 7.05686 62.953 8.56412 60.5306C3.25267 57.1807 0 51.3332 0 45C0 38.6668 3.25267 32.8224 8.56412 29.4662C7.05999 27.047 6.26719 24.3175 6.26719 21.4972C6.26719 13.2556 12.8509 6.52124 21.0327 6.27368C23.549 2.38788 27.8702 0 32.464 0C39.9972 0 46.1265 6.12953 46.1265 13.663V28.2033H73.2008C76.0336 28.2033 78.3399 25.8969 78.3399 23.0641V17.7744C76.5381 17.2792 75.2063 15.6247 75.2063 13.663C75.2063 11.3127 77.1178 9.40111 79.468 9.40111C81.8182 9.40111 83.7297 11.3127 83.7297 13.663C83.7297 15.6215 82.3979 17.2761 80.5961 17.7744V23.0641C80.5961 27.141 77.2776 30.4596 73.2008 30.4596H46.1265V37.6045H81.627C82.1221 35.7994 83.7798 34.4708 85.7383 34.4708C88.0885 34.4708 90 36.3823 90 38.7326C90 41.0829 88.0885 42.9944 85.7383 42.9944C83.7798 42.9944 82.1253 41.6657 81.627 39.8607H46.1265V50.1393H81.627C82.1221 48.3374 83.7798 47.0056 85.7383 47.0056C88.0885 47.0056 90 48.9171 90 51.2674C90 53.6177 88.0885 55.5293 85.7383 55.5293C83.7798 55.5293 82.1253 54.1974 81.627 52.3955H46.1265V59.5373H73.2008C77.2807 59.5373 80.5961 62.8559 80.5961 66.9328V72.2225C82.3979 72.7176 83.7297 74.3754 83.7297 76.3339C83.7297 78.6842 81.8182 80.5957 79.468 80.5957C77.1178 80.5957 75.2063 78.6842 75.2063 76.3339C75.2063 74.3754 76.5381 72.7208 78.3399 72.2225V66.9359C78.3399 64.1031 76.0367 61.7967 73.2008 61.7967H46.1265V76.337C46.1265 83.8705 39.9972 90 32.464 90ZM22.189 81.4387L22.6371 82.0216C24.7115 85.6034 28.3872 87.7437 32.464 87.7437C38.7532 87.7437 43.8703 82.6264 43.8703 76.337V13.663C43.8703 7.37361 38.7532 2.25627 32.464 2.25627C28.3872 2.25627 24.7115 4.39659 22.634 7.97841L22.2705 8.53934C21.4745 10.1187 21.0578 11.8799 21.0578 13.663C21.0578 15.6685 21.5842 17.6396 22.5838 19.3663L20.6316 20.4944C19.4346 18.4293 18.8016 16.0634 18.8016 13.663C18.8016 11.9488 19.1243 10.2535 19.7417 8.67096C13.3523 9.57033 8.52338 14.9791 8.52338 21.4972C8.52338 24.2423 9.41019 26.8935 11.0835 29.1623L11.8544 30.2058L10.7138 30.8231C5.49633 33.6466 2.25619 39.0773 2.25619 45C2.25619 50.5937 5.14536 55.7486 9.86143 58.6786C12.7631 55.2409 16.9872 53.273 21.4965 53.273V55.5324C17.7173 55.5324 14.1764 57.1525 11.704 59.9948L11.0835 60.8409C9.41019 63.1065 8.52338 65.7577 8.52338 68.5028C8.52338 75.657 14.3425 81.4763 21.4965 81.4763L22.189 81.4387ZM79.468 74.3315C78.3618 74.3315 77.4625 75.2308 77.4625 76.337C77.4625 77.4432 78.3618 78.3426 79.468 78.3426C80.5741 78.3426 81.4735 77.4432 81.4735 76.337C81.4735 75.2308 80.5741 74.3315 79.468 74.3315ZM85.7352 49.2618C84.629 49.2618 83.7297 50.1612 83.7297 51.2674C83.7297 52.3736 84.629 53.273 85.7352 53.273C86.8413 53.273 87.7407 52.3736 87.7407 51.2674C87.7407 50.1612 86.8413 49.2618 85.7352 49.2618ZM85.7352 36.727C84.629 36.727 83.7297 37.6264 83.7297 38.7326C83.7297 39.8388 84.629 40.7382 85.7352 40.7382C86.8413 40.7382 87.7407 39.8388 87.7407 38.7326C87.7407 37.6264 86.8413 36.727 85.7352 36.727ZM79.468 11.6574C78.3618 11.6574 77.4625 12.5568 77.4625 13.663C77.4625 14.7692 78.3618 15.6685 79.468 15.6685C80.5741 15.6685 81.4735 14.7692 81.4735 13.663C81.4735 12.5568 80.5741 11.6574 79.468 11.6574ZM32.464 83.7326V81.4763C35.2968 81.4763 37.6031 79.1731 37.6031 76.337H39.8593C39.8593 80.4171 36.5409 83.7326 32.464 83.7326ZM23.0633 77.4652C18.1216 77.4652 14.1012 73.4446 14.1012 68.5028H16.3574C16.3574 72.2006 19.3656 75.2089 23.0633 75.2089V77.4652ZM32.464 71.1978C28.3872 71.1978 25.0688 67.8792 25.0688 63.8022C25.0688 59.7253 28.3872 56.4067 32.464 56.4067V58.6661C29.6313 58.6661 27.325 60.9694 27.325 63.8054C27.325 66.6414 29.6313 68.9446 32.464 68.9446V71.1978ZM14.7028 47.0902C13.3052 45.6925 12.5344 43.8374 12.5344 41.8663C12.5344 37.5104 15.574 34.4708 19.9297 34.4708C21.9383 34.4708 23.7464 35.2166 25.1596 36.6299L23.5615 38.2249C22.5838 37.2441 21.3273 36.727 19.9297 36.727C16.8086 36.727 14.7906 38.7451 14.7906 41.8663C14.7906 43.2357 15.3264 44.5237 16.2947 45.4951L14.7028 47.0902ZM32.464 35.1602V32.9039C35.2968 32.9039 37.6031 30.5975 37.6031 27.7646C37.6031 24.9318 35.2968 22.6253 32.464 22.6253V20.3691C36.5409 20.3691 39.8593 23.6877 39.8593 27.7646C39.8593 31.8416 36.5409 35.1602 32.464 35.1602ZM39.8593 13.663H37.6031C37.6031 10.8301 35.2968 8.52368 32.464 8.52368C29.6313 8.52368 27.325 10.8301 27.325 13.663H25.0688C25.0688 9.586 28.3872 6.26741 32.464 6.26741C36.5409 6.26741 39.8593 9.586 39.8593 13.663Z" stroke="#7CFC00" stroke-width="6" mask="url(#path-1-inside-1_101_155)"/>
</svg>
